Coordinates
version=1
nRows=6
nColumns=63
inDegrees=yes

Units are S.I. units (second, meters, Newtons, ...)
If the header above contains a line with 'inDegrees', this indicates whether rotational values are in degrees (yes) or radians (no).

endheader
time	pelvis_tilt	pelvis_list	pelvis_rotation	pelvis_tx	pelvis_ty	pelvis_tz	hip_flexion_r	hip_adduction_r	hip_rotation_r	knee_angle_r	knee_angle_r_beta	ankle_angle_r	subtalar_angle_r	mtp_angle_r	hip_flexion_l	hip_adduction_l	hip_rotation_l	knee_angle_l	knee_angle_l_beta	ankle_angle_l	subtalar_angle_l	mtp_angle_l	L5_S1_Flex_Ext	L5_S1_Lat_Bending	L5_S1_axial_rotation	L4_L5_Flex_Ext	L4_L5_Lat_Bending	L4_L5_axial_rotation	L3_L4_Flex_Ext	L3_L4_Lat_Bending	L3_L4_axial_rotation	L2_L3_Flex_Ext	L2_L3_Lat_Bending	L2_L3_axial_rotation	L1_L2_Flex_Ext	L1_L2_Lat_Bending	L1_L2_axial_rotation	L1_T12_Flex_Ext	L1_T12_Lat_Bending	L1_T12_axial_rotation	Abs_r3	Abs_r2	Abs_r1	Abs_t1	Abs_t2	neck_flexion	neck_bending	neck_rotation	arm_flex_r	arm_add_r	arm_rot_r	elbow_flex_r	pro_sup_r	wrist_flex_r	wrist_dev_r	arm_flex_l	arm_add_l	arm_rot_l	elbow_flex_l	pro_sup_l	wrist_flex_l	wrist_dev_l
      3.75000000	    -54.41867261	     -2.64799159	      3.16121764	     -0.26667255	      1.01977252	      0.00633271	    109.04320677	     -6.29002932	      2.14424810	     68.63265077	      1.19786573	      9.97400025	     -7.31751476	      0.00000000	    105.58264071	     -1.48888728	      5.68018469	    100.97867220	      1.76241030	     11.15686842	      1.91531126	      0.00000000	     -0.07663571	      0.39074701	     -0.46353215	     -0.14232017	      0.51969353	     -0.49250291	     -0.12590480	      0.95006229	     -0.49250291	     -0.08758695	      0.95006229	     -0.40559063	     -0.07116392	      0.79681131	     -0.37661987	     -0.04378964	      0.60526712	     -0.34764911	     -0.54740119	      4.42020837	     -2.57802674	      0.00000000	      0.00000000	     -0.00000000	      0.00000000	      0.00000000	     80.89918052	    -12.63572324	     34.33490520	     22.17370833	     39.63778163	      0.00000000	      5.00000810	     75.39666742	    -13.12230453	     25.28567235	     30.41425416	     45.10037591	      0.00000000	      5.00000810
      3.75800000	    -54.43125735	     -2.80171627	      3.67108954	     -0.26651709	      1.02015192	      0.00596775	    107.71785511	     -6.73802273	      2.05844935	     66.73989854	      1.16483097	      9.87167433	     -7.24214173	      0.00000000	    106.50360580	     -1.02158168	      5.89777470	    102.35332059	      1.78640244	     11.70081236	      1.93041024	      0.00000000	     -0.07672707	      0.39566436	     -0.56598317	     -0.14248985	      0.52623360	     -0.60135711	     -0.12605491	      0.96201832	     -0.60135711	     -0.08769137	      0.96201832	     -0.49523527	     -0.07124876	      0.80683876	     -0.45986132	     -0.04384185	      0.61288409	     -0.42448738	     -0.54805382	      4.47583435	     -3.14782858	      0.00000000	      0.00000000	     -0.00000000	      0.00000000	      0.00000000	     80.88332919	    -12.62558556	     34.27466917	     22.10362147	     39.62332743	      0.00000000	      5.00000799	     75.38487888	    -13.21256592	     25.30996132	     30.55414001	     45.10411494	      0.00000000	      5.00000799
      3.76700000	    -54.36700445	     -3.43226707	      3.92258853	     -0.26615836	      1.02028645	      0.00548777	    106.17291013	     -7.14095850	      1.12007747	     64.80416928	      1.13104612	     10.13890970	     -7.30980657	      0.00000000	    107.56036132	     -0.60238719	      6.73552742	    103.91774609	      1.81370682	     12.21960599	      2.09874582	      0.00000000	     -0.07759458	      0.47151220	     -0.61914551	     -0.14410089	      0.62711123	     -0.65784211	     -0.12748013	      1.14643477	     -0.65784211	     -0.08868284	      1.14643477	     -0.54175232	     -0.07205432	      0.96150768	     -0.50305573	     -0.04433754	      0.73037240	     -0.46435913	     -0.55425030	      5.33384032	     -3.44350159	      0.00000000	      0.00000000	     -0.00000000	      0.00000000	      0.00000000	     81.03943756	    -12.54385228	     34.13949421	     21.71765310	     39.55495831	      0.00000000	      5.00000773	     75.16198357	    -13.29550412	     25.31594438	     30.79326863	     45.09962439	      0.00000000	      5.00000773
      3.77500000	    -54.33000303	     -3.36245824	      4.41262505	     -0.26577696	      1.02050012	      0.00539202	    104.87097103	     -7.49491107	      1.22368794	     63.03351729	      1.10014242	      9.79856365	     -7.11324909	      0.00000000	    108.46291889	     -0.16763426	      6.69589082	    105.19736567	      1.83604040	     12.50907543	      2.01220080	      0.00000000	     -0.07684399	      0.44321203	     -0.72280942	     -0.14270697	      0.58947200	     -0.76798501	     -0.12624699	      1.07762573	     -0.76798501	     -0.08782500	      1.07762573	     -0.63245824	     -0.07135733	      0.90379797	     -0.58728265	     -0.04390866	      0.68653544	     -0.54210706	     -0.54888894	      5.01370313	     -4.02004914	      0.00000000	      0.00000000	     -0.00000000	      0.00000000	      0.00000000	     80.89328430	    -12.49339247	     34.13969042	     21.66045871	     39.55730149	      0.00000000	      5.00000763	     75.16727293	    -13.36447903	     25.27639273	     30.85394912	     45.09205090	      0.00000000	      5.00000763
      3.78300000	    -54.23047944	     -3.65349129	      4.49471889	     -0.26508950	      1.02047370	      0.00554762	    103.32189637	     -7.55361333	      0.65452564	     61.12680386	      1.06686399	     10.00019939	     -7.13517301	      0.00000000	    109.51105709	      0.03010332	      7.13892885	    106.67138363	      1.86176686	     12.42359687	      1.71420670	      0.00000000	     -0.07609542	      0.46690295	     -0.74865447	     -0.14131681	      0.62098093	     -0.79544538	     -0.12501717	      1.13522784	     -0.79544538	     -0.08696946	      1.13522784	     -0.65507266	     -0.07066221	      0.95210850	     -0.60828176	     -0.04348093	      0.72323267	     -0.56149086	     -0.54354201	      5.28169959	     -4.16379158	      0.00000000	      0.00000000	     -0.00000000	      0.00000000	      0.00000000	     80.89275878	    -12.38052344	     34.04644145	     21.20146043	     39.50864050	      0.00000000	      5.00000743	     74.99199871	    -13.41719055	     25.21501271	     30.98879739	     45.07651220	      0.00000000	      5.00000743
      3.79200000	    -54.13614569	     -3.52343014	      4.77393966	     -0.26432577	      1.02050488	      0.00569927	    101.92123917	     -7.73992034	      0.59917751	     59.38501015	      1.03646395	      9.70047776	     -6.95907288	      0.00000000	    110.46062556	      0.34042235	      7.09890157	    107.94849120	      1.88405659	     12.40750993	      1.55174640	      0.00000000	     -0.07582272	      0.43288839	     -0.81821724	     -0.14081037	      0.57574156	     -0.86935581	     -0.12456915	      1.05252482	     -0.86935581	     -0.08665779	      1.05252482	     -0.71594008	     -0.07040898	      0.88274600	     -0.66480151	     -0.04332510	      0.67054411	     -0.61366293	     -0.54159410	      4.89692002	     -4.55067881	      0.00000000	      0.00000000	     -0.00000000	      0.00000000	      0.00000000	     80.70588613	    -12.26115684	     34.03589222	     21.04950425	     39.49815974	      0.00000000	      5.00000733	     74.91025690	    -13.48430341	     25.16568528	     31.01643650	     45.06628095	      0.00000000	      5.00000733
